# xmcd
#
# Track frame offsets: 
#        150
#        14321
#        28931
#        40383
#        57691
#        74396
#        98250
#        113598
#        130104
#        142326
#        157808
#        176557
#        190351
#        208313
#
# Disc length: 2954 seconds
#
# Revision: 0
# Processed by: cddbd v1.5.2PL0 Copyright (c) Steve Scherf et al.
# Submitted via: ExactAudioCopy v1.0b3
#
DISCID=cb0b880e
DTITLE=Caju E Castanha - Levante A Taça
DYEAR=2006
DGENRE=Latin-Br-Forro
TTITLE0=Levante A Taça
TTITLE1=O Fenômeno E O Gaúcho
TTITLE2=O Desafio Da Copa
TTITLE3=Que Venha O Hexa
TTITLE4=A Copa Do Mundo 2006
TTITLE5=A Copa Do Perna De Pau X Perneta
TTITLE6=Pega Que Eu Quero Ver
TTITLE7=Brasil Do Futebol E Carnaval
TTITLE8=O Desafio Na Alemanha
TTITLE9=Pelé Ou Maradona
TTITLE10=Brasil Bom De Bola
TTITLE11=O Brasil Em Campo
TTITLE12=A Copa Da Alemanha
TTITLE13=Show De Bola Na Alemanha
EXTD=
EXTT0=
EXTT1=
EXTT2=
EXTT3=
EXTT4=
EXTT5=
EXTT6=
EXTT7=
EXTT8=
EXTT9=
EXTT10=
EXTT11=
EXTT12=
EXTT13=
PLAYORDER=
